<mxfile host="app.diagrams.net" modified="2024-12-18T14:37:40.084Z" agent="Mozilla/5.0 (Windows NT 10.0; Win64; x64) AppleWebKit/537.36 (KHTML, like Gecko) Chrome/131.0.0.0 Safari/537.36" etag="HS5Ab8I9Vld0R7RCPydm" version="24.3.1" type="device">
  <diagram name="Pagina-1" id="DNHkW_hu2xEhmyobJ74Z">
    <mxGraphModel dx="823" dy="501" grid="1" gridSize="10" guides="1" tooltips="1" connect="1" arrows="1" fold="1" page="1" pageScale="1" pageWidth="827" pageHeight="1169" math="0" shadow="0">
      <root>
        <mxCell id="0" />
        <mxCell id="1" parent="0" />
        <mxCell id="EuJukIUxg5Wx40jie1LJ-2" value="" style="rounded=0;whiteSpace=wrap;html=1;" vertex="1" parent="1">
          <mxGeometry x="280" y="150" width="150" height="90" as="geometry" />
        </mxCell>
        <mxCell id="EuJukIUxg5Wx40jie1LJ-3" value="" style="rounded=0;whiteSpace=wrap;html=1;" vertex="1" parent="1">
          <mxGeometry x="329" y="168" width="80" height="40" as="geometry" />
        </mxCell>
        <mxCell id="EuJukIUxg5Wx40jie1LJ-4" value="" style="rounded=0;whiteSpace=wrap;html=1;dashed=1;fillColor=none;" vertex="1" parent="1">
          <mxGeometry x="310" y="140" width="160" height="110" as="geometry" />
        </mxCell>
        <mxCell id="EuJukIUxg5Wx40jie1LJ-5" value="P" style="text;html=1;align=center;verticalAlign=middle;whiteSpace=wrap;rounded=0;" vertex="1" parent="1">
          <mxGeometry x="340" y="173" width="60" height="30" as="geometry" />
        </mxCell>
        <mxCell id="EuJukIUxg5Wx40jie1LJ-6" value="NP" style="text;html=1;align=center;verticalAlign=middle;whiteSpace=wrap;rounded=0;" vertex="1" parent="1">
          <mxGeometry x="266" y="150" width="60" height="30" as="geometry" />
        </mxCell>
        <mxCell id="EuJukIUxg5Wx40jie1LJ-7" value="BQP" style="text;html=1;align=center;verticalAlign=middle;whiteSpace=wrap;rounded=0;" vertex="1" parent="1">
          <mxGeometry x="420" y="140" width="60" height="30" as="geometry" />
        </mxCell>
        <mxCell id="EuJukIUxg5Wx40jie1LJ-8" value="" style="rounded=0;whiteSpace=wrap;html=1;dashed=1;fillColor=none;" vertex="1" parent="1">
          <mxGeometry x="320" y="160" width="100" height="70" as="geometry" />
        </mxCell>
        <mxCell id="EuJukIUxg5Wx40jie1LJ-9" value="BPP" style="text;html=1;align=center;verticalAlign=middle;whiteSpace=wrap;rounded=0;" vertex="1" parent="1">
          <mxGeometry x="370" y="205" width="60" height="30" as="geometry" />
        </mxCell>
      </root>
    </mxGraphModel>
  </diagram>
</mxfile>
